# Exported from ProBuilder
# http://www.procore3d.com/probuilder
# 4/23/2018 7:22:34 AM

mtllib ./CameraProxy.mtl
o CameraProxy

g CameraProxy
v 0.5000003 10.82465 9.949023
v 0.5000003 11.82098 10.03465
v -0.4999999 11.82098 10.03465
v -0.4999999 10.82465 9.949022
v 0.5000003 11.82098 10.03465
v 0.4999999 11.73535 11.03098
v -0.5000003 11.73535 11.03098
v -0.4999999 11.82098 10.03465
v 0.4999999 11.73535 11.03098
v 0.4999999 10.73902 10.94535
v -0.5000003 10.73902 10.94535
v -0.5000003 11.73535 11.03098
v 0.4999999 10.73902 10.94535
v 0.5000003 10.82465 9.949023
v -0.4999999 10.82465 9.949022
v -0.5000003 10.73902 10.94535
v -0.4999999 10.82465 9.949022
v -0.4999999 11.82098 10.03465
v -0.5000003 11.73535 11.03098
v -0.5000003 10.73902 10.94535
v 0.4999999 10.73902 10.94535
v 0.4999999 11.73535 11.03098
v 0.5000003 11.82098 10.03465
v 0.5000003 10.82465 9.949023

vn 3.731316E-07 0.08562681 -0.9963274
vn 3.731316E-07 0.08562681 -0.9963274
vn 3.731316E-07 0.08562681 -0.9963274
vn 3.731316E-07 0.08562681 -0.9963274
vn -3.206784E-08 0.9963273 0.08562681
vn -3.206784E-08 0.9963273 0.08562681
vn -3.206784E-08 0.9963273 0.08562681
vn -3.206784E-08 0.9963273 0.08562681
vn -3.731316E-07 -0.08562681 0.9963274
vn -3.731316E-07 -0.08562681 0.9963274
vn -3.731316E-07 -0.08562681 0.9963274
vn -3.731316E-07 -0.08562681 0.9963274
vn 3.206784E-08 -0.9963273 -0.08562681
vn 3.206784E-08 -0.9963273 -0.08562681
vn 3.206784E-08 -0.9963273 -0.08562681
vn 3.206784E-08 -0.9963273 -0.08562681
vn -1 0 -3.74507E-07
vn -1 0 -3.74507E-07
vn -1 0 -3.74507E-07
vn -1 0 -3.74507E-07
vn 1 0 3.74507E-07
vn 1 0 3.74507E-07
vn 1 0 3.74507E-07
vn 1 0 3.74507E-07

vt 0 0
vt 0 1
vt 1 1
vt 1 0
vt 0 0
vt 0 1
vt 1 1
vt 1 0
vt 0 0
vt 0 1
vt 1 1
vt 1 0
vt 0 0
vt 0 1
vt 1 1
vt 1 0
vt 0 0
vt 0 1
vt 1 1
vt 1 0
vt 0 0
vt 0 1
vt 1 1
vt 1 0

g CameraProxy
usemtl Default-Material
f 4/4/4 3/3/3 2/2/2 1/1/1
f 8/8/8 7/7/7 6/6/6 5/5/5
f 12/12/12 11/11/11 10/10/10 9/9/9
f 16/16/16 15/15/15 14/14/14 13/13/13
f 20/20/20 19/19/19 18/18/18 17/17/17
f 24/24/24 23/23/23 22/22/22 21/21/21

